<?xml version="1.0" encoding="utf-8"?>
<!-- Generator: Adobe Illustrator 16.0.4, SVG Export Plug-In . SVG Version: 6.00 Build 0)  -->
<!DOCTYPE svg PUBLIC "-//W3C//DTD SVG 1.1//EN" "http://www.w3.org/Graphics/SVG/1.1/DTD/svg11.dtd" [
	<!ENTITY st0 "fill:#005494;">
]>
<svg version="1.1" id="icon-1" xmlns="http://www.w3.org/2000/svg" xmlns:xlink="http://www.w3.org/1999/xlink" x="0px" y="0px"
	 width="192px" height="150px" viewBox="0 0 192 150" style="enable-background:new 0 0 192 150;" xml:space="preserve">
<path style="&st0;" d="M124.86,2.007H69.135c-5.328,0-9.632,4.309-9.632,9.613v112.771c0,5.3,4.304,9.609,9.632,9.609h55.72
	c5.327,0,9.642-4.31,9.642-9.609V11.62C134.502,6.315,130.188,2.007,124.86,2.007z M83.245,7.848h27.515
	c0.695,0,1.255,1.034,1.255,2.32c0,1.279-0.56,2.318-1.255,2.318H83.245c-0.694,0-1.25-1.039-1.25-2.318
	C81.995,8.881,82.55,7.848,83.245,7.848z M97.002,124.511c-3.397,0-6.157-2.746-6.157-6.137c0-3.39,2.765-6.127,6.157-6.127
	c3.388,0,6.153,2.746,6.153,6.127C103.155,121.765,100.386,124.511,97.002,124.511z M127.278,103.489H66.727V18.229h60.551V103.489z
	"/>
</svg>
