<?xml version="1.0" encoding="utf-8"?>
<!-- Generator: Adobe Illustrator 16.0.4, SVG Export Plug-In . SVG Version: 6.00 Build 0)  -->
<!DOCTYPE svg PUBLIC "-//W3C//DTD SVG 1.1//EN" "http://www.w3.org/Graphics/SVG/1.1/DTD/svg11.dtd" [
	<!ENTITY st0 "fill:#005494;">
]>
<svg version="1.1" id="icon-2" xmlns="http://www.w3.org/2000/svg" xmlns:xlink="http://www.w3.org/1999/xlink" x="0px" y="0px"
	 width="192px" height="150px" viewBox="0 0 192 150" style="enable-background:new 0 0 192 150;" xml:space="preserve">
<g>
	<path style="&st0;" d="M0,150h75V39H0V150z M39.271,144.452c-2.002,0-3.623-1.611-3.623-3.576s1.621-3.565,3.623-3.565
		c2.003,0,3.627,1.601,3.627,3.565C42.904,142.841,41.274,144.452,39.271,144.452z M11,50h53.422l-0.004,82H11V50z"/>
	<path style="&st0;" d="M37,12h121v49h10V2H27v32h10V12z"/>
	<path style="&st0;" d="M80,84h56v10H80V84z"/>
	<path style="&st0;" d="M141,65v83h51V65H141z M167.865,68.097c0.675,0,1.219,0.536,1.219,1.199c0,0.661-0.544,1.207-1.219,1.207
		s-1.223-0.545-1.223-1.207C166.643,68.629,167.19,68.097,167.865,68.097z M161,72h14v1h-14V72z M167.388,144.674
		c-1.605,0-2.914-1.29-2.914-2.874c0-1.577,1.301-2.866,2.914-2.866c1.605,0,2.915,1.282,2.915,2.866
		S168.993,144.674,167.388,144.674z M184,134.822c-13,0.073-28,0.12-34,0.065V77.373l34-0.008V134.822z"/>
	<path style="&st0;" d="M95.511,98H80v7h38v2H80v6h56V98H99.554H95.511z"/>
</g>
</svg>
