<?xml version="1.0" encoding="utf-8"?>
<!-- Generator: Adobe Illustrator 16.0.4, SVG Export Plug-In . SVG Version: 6.00 Build 0)  -->
<!DOCTYPE svg PUBLIC "-//W3C//DTD SVG 1.1//EN" "http://www.w3.org/Graphics/SVG/1.1/DTD/svg11.dtd" [
	<!ENTITY st0 "fill:#FFFFFF;">
]>
<svg version="1.1" id="Layer_1" xmlns="http://www.w3.org/2000/svg" xmlns:xlink="http://www.w3.org/1999/xlink" x="0px" y="0px"
	 width="41px" height="41px" viewBox="0 0 41 41" style="enable-background:new 0 0 41 41;" xml:space="preserve">
<g>
	<path style="&st0;" d="M40.25,0.751c-1.002-1.001-2.638-1.001-3.64,0L31.395,5.97c-2.137-1.421-4.589-2.126-7.052-2.126
		c-3.278,0-6.664,1.251-9.059,3.754l-7.688,7.688c-4.385,4.378-4.926,11.15-1.631,16.12l-5.215,5.22c-1,1.001-1,2.623,0,3.623
		C1.25,40.75,1.904,41,2.561,41s1.311-0.25,1.812-0.751l5.215-5.22c2.137,1.422,4.605,2.127,7.067,2.127
		c3.171,0,6.557-1.251,9.06-3.753l7.673-7.688c4.384-4.379,4.925-11.152,1.63-16.122l5.23-5.22C41.25,3.373,41.25,1.752,40.25,0.751
		z M32.016,16.656c0,2.054-0.801,3.984-2.252,5.436l-7.673,7.688c-1.457,1.451-3.49,2.252-5.436,2.252
		c-1.161,0-2.271-0.285-3.292-0.771l3.716-3.823c1-1.001,1-2.624,0-3.625c-0.894-1-2.515-1-3.517,0l-3.823,3.825
		c-0.491-1.017-0.771-2.127-0.771-3.294c0-2.052,0.801-3.982,2.252-5.435l7.58-7.688c1.452-1.452,3.492-2.252,5.543-2.252
		c1.162,0,2.268,0.285,3.289,0.771l-3.899,3.904c-1,1.001-1,2.622,0,3.623c0.501,0.501,1.155,0.751,1.812,0.751
		c0.65,0,1.306-0.25,1.807-0.751l3.893-3.903C31.736,14.38,32.016,15.49,32.016,16.656z"/>
</g>
</svg>
